<svg width="101" height="132" viewBox="0 0 101 132" fill="none" xmlns="http://www.w3.org/2000/svg">
<rect x="11" width="90" height="121" rx="8" fill="#ACC6E4"/>
<rect x="6" y="5" width="90" height="121" rx="8" fill="#759AC7"/>
<rect y="11" width="90" height="121" rx="8" fill="#3C6BA3"/>
<path d="M75.1667 45.6042C71.6054 44.4813 67.6912 44 63.9375 44C57.6812 44 50.9437 45.2833 46.2917 48.8125C41.6396 45.2833 34.9021 44 28.6458 44C22.3896 44 15.6521 45.2833 11 48.8125V95.8146C11 96.6167 11.8021 97.4187 12.6042 97.4187C12.925 97.4187 13.0854 97.2583 13.4062 97.2583C17.7375 95.1729 23.9937 93.7292 28.6458 93.7292C34.9021 93.7292 41.6396 95.0125 46.2917 98.5417C50.6229 95.8146 58.4833 93.7292 63.9375 93.7292C69.2312 93.7292 74.6854 94.6917 79.1771 97.0979C79.4979 97.2583 79.6583 97.2583 79.9792 97.2583C80.7812 97.2583 81.5833 96.4562 81.5833 95.6542V48.8125C79.6583 47.3687 77.5729 46.4062 75.1667 45.6042ZM75.1667 88.9167C71.6375 87.7937 67.7875 87.3125 63.9375 87.3125C58.4833 87.3125 50.6229 89.3979 46.2917 92.125V55.2292C50.6229 52.5021 58.4833 50.4167 63.9375 50.4167C67.7875 50.4167 71.6375 50.8979 75.1667 52.0208V88.9167Z" fill="white"/>
<path d="M63.9375 63.25C66.7608 63.25 69.4879 63.5388 71.9583 64.0842V59.2075C69.4237 58.7262 66.6967 58.4375 63.9375 58.4375C58.4833 58.4375 53.5425 59.3679 49.5 61.1004V66.4263C53.1254 64.3729 58.1625 63.25 63.9375 63.25Z" fill="white"/>
<path d="M49.5 69.6346V74.9604C53.1254 72.9071 58.1625 71.7842 63.9375 71.7842C66.7608 71.7842 69.4879 72.0729 71.9583 72.6183V67.7417C69.4237 67.2604 66.6967 66.9717 63.9375 66.9717C58.4833 66.9717 53.5425 67.9342 49.5 69.6346Z" fill="white"/>
<path d="M63.9375 75.5379C58.4833 75.5379 53.5425 76.4683 49.5 78.2008V83.5267C53.1254 81.4733 58.1625 80.3504 63.9375 80.3504C66.7608 80.3504 69.4879 80.6392 71.9583 81.1846V76.3079C69.4237 75.7946 66.6967 75.5379 63.9375 75.5379Z" fill="white"/>
</svg>
